<?xml version="1.0" encoding="utf-8"?>
<!-- Generator: Adobe Illustrator 16.0.0, SVG Export Plug-In . SVG Version: 6.00 Build 0)  -->
<!DOCTYPE svg PUBLIC "-//W3C//DTD SVG 1.1//EN" "http://www.w3.org/Graphics/SVG/1.1/DTD/svg11.dtd">
<svg version="1.1" id="Capa_1" xmlns="http://www.w3.org/2000/svg" xmlns:xlink="http://www.w3.org/1999/xlink" x="0px" y="0px"
	 width="12px" height="6.997px" viewBox="-197.391 163.276 12 6.997" enable-background="new -197.391 163.276 12 6.997"
	 xml:space="preserve">
<g>
	<path d="M-185.511,163.997l-0.601-0.602c-0.08-0.079-0.172-0.119-0.277-0.119c-0.104,0-0.196,0.04-0.276,0.119l-4.726,4.727
		l-4.726-4.727c-0.08-0.079-0.172-0.119-0.276-0.119c-0.104,0-0.196,0.04-0.277,0.119l-0.601,0.602
		c-0.08,0.081-0.12,0.172-0.12,0.276s0.04,0.197,0.12,0.276l5.604,5.604c0.08,0.079,0.172,0.119,0.276,0.119s0.196-0.04,0.276-0.119
		l5.604-5.604c0.08-0.079,0.12-0.172,0.12-0.276S-185.431,164.078-185.511,163.997z"/>
</g>
</svg>
